PathFileType	4	(X/Y/Z)	C:\Users\86182\Documents\cortex\Trimmed_M4_H16.trc
DataRate	CameraRate	NumFrames	NumMarkers	Units	OrigDataRate	OrigDataStartFrame	OrigNumFrames
100.00	100.00	       56	2	mm	100.00	361	       901
Frame#	Time	gripper			box			
		X1	Y1	Z1	X2	Y2	Z2	

361	3.600	276.17856	151.20348	292.31656	278.42590	148.14305	156.66891	
362	3.610	276.17258	151.21751	292.37003	278.41406	148.15176	156.76178	
363	3.620	276.17166	151.23009	292.40863	278.41107	148.15834	156.83337	
364	3.630	276.17377	151.24037	292.43616	278.41751	148.16185	156.88873	
365	3.640	276.17679	151.24770	292.45566	278.43240	148.16151	156.93317	
366	3.650	276.17969	151.25197	292.46918	278.45364	148.15735	156.97095	
367	3.660	276.18231	151.25368	292.47809	278.47839	148.15028	157.00446	
368	3.670	276.18472	151.25368	292.48358	278.50381	148.14203	157.03387	
369	3.680	276.18680	151.25281	292.48657	278.52719	148.13434	157.05788	
370	3.690	276.18842	151.25172	292.48782	278.54642	148.12820	157.07520	
371	3.700	276.18958	151.25079	292.48782	278.56033	148.12349	157.08585	
372	3.710	276.19040	151.25023	292.48700	278.56909	148.11958	157.09111	
373	3.720	276.19098	151.25012	292.48572	278.57373	148.11633	157.09251	
374	3.730	276.19156	151.25038	292.48444	278.57547	148.11409	157.09149	
375	3.740	276.19220	151.25087	292.48340	278.57556	148.11314	157.08896	
376	3.750	276.19278	151.25131	292.48254	278.57471	148.11322	157.08551	
377	3.760	276.19302	151.25127	292.48132	278.57239	148.11330	157.08105	
378	3.770	276.19241	151.25015	292.47867	278.56592	148.11162	157.07452	
379	3.780	276.19028	151.24730	292.47336	278.55072	148.10643	157.06342	
380	3.790	276.18576	151.24193	292.46396	278.52164	148.09644	157.04457	
381	3.800	276.17776	151.23337	292.44928	278.47501	148.08070	157.01578	
382	3.810	276.16547	151.22141	292.42896	278.41055	148.05890	156.97714	
383	3.820	276.14883	151.20656	292.40369	278.33215	148.03188	156.93076	
384	3.830	276.12939	151.19028	292.37524	278.24677	148.00153	156.87967	
385	3.840	276.11011	151.17458	292.34564	278.16211	147.97032	156.82663	
386	3.850	276.09402	151.16127	292.31647	278.08533	147.94083	156.77417	
387	3.860	276.08270	151.15149	292.28958	278.02188	147.91544	156.72546	
388	3.870	276.07611	151.14519	292.26706	277.97482	147.89584	156.68512	
389	3.880	276.07358	151.14140	292.25113	277.94455	147.88303	156.65817	
390	3.890	276.07474	151.13876	292.24319	277.92953	147.87706	156.64795	
391	3.900	276.07947	151.13602	292.24310	277.92749	147.87671	156.65448	
392	3.910	276.08725	151.13245	292.24902	277.93591	147.87924	156.67398	
393	3.920	276.09711	151.12813	292.25787	277.95190	147.88155	156.70007	
394	3.930	276.10782	151.12369	292.26660	277.97171	147.88144	156.72534	
395	3.940	276.11801	151.12001	292.27307	277.99078	147.87830	156.74344	
396	3.950	276.12595	151.11801	292.27618	278.00528	147.87292	156.75053	
397	3.960	276.13013	151.11824	292.27600	278.01294	147.86699	156.74609	
398	3.970	276.12979	151.12074	292.27335	278.01361	147.86211	156.73233	
399	3.980	276.12546	151.12488	292.26944	278.00888	147.85921	156.71335	
400	3.990	276.11877	151.12946	292.26575	278.00119	147.85858	156.69391	
401	4.000	276.11194	151.13306	292.26361	277.99286	147.86012	156.67834	
402	4.010	276.10696	151.13464	292.26382	277.98547	147.86359	156.66998	
403	4.020	276.10483	151.13396	292.26642	277.98010	147.86833	156.67035	
404	4.030	276.10547	151.13145	292.27060	277.97714	147.87346	156.67859	
405	4.040	276.10828	151.12802	292.27496	277.97592	147.87808	156.69171	
406	4.050	276.11252	151.12468	292.27802	277.97504	147.88171	156.70526	
407	4.060	276.11731	151.12227	292.27875	277.97290	147.88434	156.71472	
408	4.070	276.12164	151.12128	292.27686	277.96869	147.88622	156.71741	
409	4.080	276.12506	151.12167	292.27289	277.96289	147.88757	156.71329	
410	4.090	276.12775	151.12288	292.26770	277.95663	147.88858	156.70491	
411	4.100	276.13040	151.12401	292.26273	277.95123	147.88937	156.69608	
412	4.110	276.13391	151.12422	292.25912	277.94800	147.88989	156.69049	
413	4.120	276.13867	151.12305	292.25775	277.94791	147.88968	156.69043	
414	4.130	276.14426	151.12053	292.25885	277.95151	147.88820	156.69604	
415	4.140	276.14969	151.11723	292.26193	277.95844	147.88535	156.70569	
416	4.150	276.15399	151.11394	292.26593	277.96753	147.88156	156.71674	
